:FULLY-SPECIFIED
:FORCE-ALL-JOINTS-BE-3DOF
:DEGREES
679
root 5.36487 16.1049 0.934744 15.6585 -23.3726 0.0251048
lfemur -37.3037 26.638 -9.80542
ltibia 106.785 0 0
lfoot 22.137 -20.7165 0
ltoes 13.2586 0 0
rfemur -38.3277 -11.4076 26.1711
rtibia 61.3271 0 0
rfoot -24.2269 -6.0755 0
rtoes 0.297223 0 0
lowerback 0.991317 -6.67024 0.0663298
upperback -1.88503 -8.89094 0.913716
thorax -2.35356 -4.43676 1.15863
lowerneck -9.431 -3.64158 0.686641
upperneck 2.50991 -5.05834 2.13092
head 2.46848 -2.44329 0.310009
lclavicle 8.56273e-14 1.95713e-14 0
lhumerus 15.2393 -61.8524 53.9252
lradius 91.9636 0 0
lwrist 29.7135 0 0
lhand -14.5818 -1.27203 0
lfingers 7.12502 0 0
lthumb 11.5681 28.3883 0
rclavicle 8.56273e-14 1.95713e-14 0
rhumerus -45.9745 -9.36441 -44.081
rradius 77.7057 0 0
rwrist -21.7606 0 0
rhand -26.913 -47.6595 0
rfingers 7.12502 0 0
rthumb -0.336078 -797.639 0
680
root 5.35757 16.1485 1.05149 15.4457 -24.6551 -0.0188455
lfemur -38.6408 26.5214 -7.68396
ltibia 110.835 0 0
lfoot 23.3716 -22.1735 0
ltoes 13.8335 0 0
rfemur -37.0493 -10.5986 25.6188
rtibia 60.2502 0 0
rfoot -24.182 -5.83958 0
rtoes 0.136471 0 0
lowerback 1.2829 -6.68443 0.0475016
upperback -1.8514 -8.91007 0.842014
thorax -2.48965 -4.4449 1.13259
lowerneck -9.24205 -3.56945 0.702065
upperneck 2.62229 -4.96469 2.15003
head 2.47081 -2.39551 0.320897
lclavicle 1.30303e-13 2.06736e-14 0
lhumerus 18.1137 -60.1086 49.3292
lradius 92.6218 0 0
lwrist 30.0796 0 0
lhand -14.8207 -1.41853 0
lfingers 7.12502 0 0
lthumb 11.3377 28.255 0
rclavicle 1.30303e-13 2.06736e-14 0
rhumerus -45.2935 -8.74488 -42.9472
rradius 79.7625 0 0
rwrist -21.6464 0 0
rhand -26.8969 -47.4337 0
rfingers 7.12502 0 0
rthumb -0.320506 -797.413 0
681
root 5.34772 16.2187 1.17307 15.2361 -25.8866 0.0242713
lfemur -39.7827 26.4519 -4.95341
ltibia 114.257 0 0
lfoot 23.1267 -22.3689 0
ltoes 14.0495 0 0
rfemur -35.6206 -10.0128 25.0343
rtibia 58.6519 0 0
rfoot -23.9071 -5.37317 0
rtoes 0.571284 0 0
lowerback 1.51404 -6.66391 -0.0766184
upperback -1.82242 -8.88946 0.694933
thorax -2.59367 -4.4321 1.07784
lowerneck -8.97081 -3.58138 0.669915
upperneck 2.7478 -4.98357 2.28455
head 2.46824 -2.40111 0.372443
lclavicle 4.64894e-14 6.78533e-15 0
lhumerus 20.5229 -57.9107 45.1594
lradius 92.741 0 0
lwrist 30.4905 0 0
lhand -15.0908 -1.55385 0
lfingers 7.12502 0 0
lthumb 11.0771 28.1334 0
rclavicle 4.64894e-14 6.78533e-15 0
rhumerus -44.7945 -8.24543 -41.4342
rradius 81.9679 0 0
rwrist -20.9264 0 0
rhand -26.9778 -46.9794 0
rfingers 7.12502 0 0
rthumb -0.39864 -796.959 0
682
root 5.33647 16.3064 1.30899 14.993 -27.229 0.106745
lfemur -40.9754 26.2931 -1.86303
ltibia 117.661 0 0
lfoot 22.738 -22.2807 0
ltoes 14.5768 0 0
rfemur -33.9698 -9.42755 24.3543
rtibia 56.6853 0 0
rfoot -23.4782 -4.75416 0
rtoes 1.22884 0 0
lowerback 1.755 -6.62667 -0.233172
upperback -1.79258 -8.8496 0.50859
thorax -2.7039 -4.40933 1.00107
lowerneck -8.66314 -3.61748 0.618617
upperneck 2.89797 -5.03582 2.46333
head 2.46978 -2.42222 0.440322
lclavicle -7.38313e-15 -1.92874e-15 0
lhumerus 22.9704 -55.4314 40.8219
lradius 92.6818 0 0
lwrist 30.8798 0 0
lhand -15.4193 -1.71532 0
lfingers 7.12502 0 0
lthumb 10.7603 27.9881 0
rclavicle -7.38313e-15 -1.92874e-15 0
rhumerus -44.2905 -7.78823 -39.6552
rradius 84.3359 0 0
rwrist -20.0599 0 0
rhand -27.1111 -46.4148 0
rfingers 7.12502 0 0
rthumb -0.527407 -796.394 0
683
root 5.32434 16.4083 1.45447 14.7256 -28.6397 0.223648
lfemur -42.1831 26.0414 1.44853
ltibia 120.934 0 0
lfoot 22.2377 -21.9421 0
ltoes 15.3722 0 0
rfemur -32.1581 -8.85229 23.6029
rtibia 54.4247 0 0
rfoot -22.9037 -4.01455 0
rtoes 2.06021 0 0
lowerback 1.99832 -6.57418 -0.41377
upperback -1.76265 -8.79197 0.291118
thorax -2.81689 -4.37749 0.90511
lowerneck -8.33295 -3.67409 0.551903
upperneck 3.06602 -5.11655 2.67823
head 2.47534 -2.45665 0.521352
lclavicle -3.68018e-14 -6.13625e-15 0
lhumerus 25.3762 -52.7708 36.4648
lradius 92.4584 0 0
lwrist 31.2307 0 0
lhand -15.7909 -1.90095 0
lfingers 7.12502 0 0
lthumb 10.4018 27.8203 0
rclavicle -3.68018e-14 -6.13625e-15 0
rhumerus -43.7938 -7.38598 -37.6842
rradius 86.7757 0 0
rwrist -19.099 0 0
rhand -27.2953 -45.7683 0
rfingers 7.12502 0 0
rthumb -0.705309 -795.746 0
684
root 5.31186 16.521 1.60473 14.443 -30.0759 0.370056
lfemur -43.3702 25.6934 4.84261
ltibia 123.966 0 0
lfoot 21.6579 -21.3864 0
ltoes 16.3927 0 0
rfemur -30.2466 -8.29665 22.8043
rtibia 51.9444 0 0
rfoot -22.1918 -3.18631 0
rtoes 3.01647 0 0
lowerback 2.23654 -6.50789 -0.61002
upperback -1.73337 -8.718 0.0506532
thorax -2.92919 -4.33743 0.792791
lowerneck -7.99411 -3.74752 0.473507
upperneck 3.24512 -5.22088 2.9211
head 2.48485 -2.50218 0.612348
lclavicle -4.72536e-14 -6.50484e-15 0
lhumerus 27.6602 -50.0289 32.2362
lradius 92.0853 0 0
lwrist 31.5266 0 0
lhand -16.1905 -2.10872 0
lfingers 7.12502 0 0
lthumb 10.0163 27.6314 0
rclavicle -4.72536e-14 -6.50484e-15 0
rhumerus -43.3169 -7.0514 -35.5953
rradius 89.1971 0 0
rwrist -18.0953 0 0
rhand -27.5288 -45.0685 0
rfingers 7.12502 0 0
rthumb -0.930849 -795.046 0
